<?xml version="1.0" standalone="no"?>
<!DOCTYPE svg PUBLIC "-//W3C//DTD SVG 20010904//EN"
 "http://www.w3.org/TR/2001/REC-SVG-20010904/DTD/svg10.dtd">
<svg version="1.0" xmlns="http://www.w3.org/2000/svg"
 width="300.000000pt" height="37" viewBox="0 0 300.000000 44"
 preserveAspectRatio="xMidYMid meet">
<metadata>
Created by potrace 1.10, written by Peter Selinger 2001-2011
</metadata>
<g transform="translate(0.000000,48.000000) scale(0.100000,-0.100000)"
fill="#000000" stroke="none">
<path d="M2125 310 c-3 -5 -1 -10 4 -10 6 0 11 5 11 10 0 6 -2 10 -4 10 -3 0
-8 -4 -11 -10z"/>
<path d="M1150 250 c0 -47 4 -64 20 -80 11 -11 25 -20 30 -20 6 0 19 9 30 20
16 16 20 33 20 80 0 82 -18 76 -22 -7 -3 -65 -4 -68 -28 -68 -24 0 -25 3 -28
68 -4 83 -22 89 -22 7z"/>
<path d="M1183 250 c0 -36 2 -50 4 -32 2 17 2 47 0 65 -2 17 -4 3 -4 -33z"/>
<path d="M1272 233 l1 -78 6 60 6 60 30 -57 c16 -32 33 -58 37 -58 4 0 7 35 6
78 l-1 77 -6 -60 -6 -60 -30 58 c-16 31 -33 57 -37 57 -4 0 -7 -35 -6 -77z"/>
<path d="M1390 235 l0 -75 43 2 c36 1 38 2 10 5 -29 4 -33 8 -33 33 0 24 5 29
28 33 l27 4 -27 2 c-24 1 -28 5 -28 30 0 26 4 30 33 34 28 3 26 4 -10 5 l-43
2 0 -75z"/>
<path d="M1480 301 c0 -5 -8 -12 -17 -14 -14 -4 -12 -5 5 -6 13 -1 22 5 22 14
0 8 -2 15 -5 15 -3 0 -5 -4 -5 -9z"/>
<path d="M1509 288 c-10 -19 -7 -25 31 -58 49 -42 47 -60 -8 -61 -32 0 -34 -1
-14 -9 34 -14 72 4 72 34 0 17 -11 31 -36 46 -42 26 -42 52 1 61 l30 7 -32 1
c-24 1 -35 -5 -44 -21z"/>
<path d="M1591 303 c-1 -7 -13 -14 -28 -14 l-28 -1 30 -7 c31 -7 40 0 32 22
-4 10 -6 10 -6 0z"/>
<path d="M1654 302 c-39 -26 -41 -109 -4 -135 11 -8 17 -17 13 -21 -4 -4 5 -2
20 3 38 15 44 14 21 -4 -18 -14 -18 -14 4 -8 36 9 27 33 -13 33 -38 0 -55 20
-55 67 0 38 11 52 46 63 28 8 28 8 4 9 -14 0 -30 -3 -36 -7z"/>
<path d="M1751 296 c-33 -40 -18 -119 27 -142 12 -6 19 -14 15 -18 -4 -4 1 -4
12 0 25 8 45 33 45 53 0 10 -5 7 -13 -8 -6 -14 -19 -27 -27 -29 -11 -4 -9 2 5
18 24 26 27 98 6 123 -17 21 -54 22 -70 3z m59 -16 c16 -29 8 -91 -12 -103
-24 -16 -48 9 -48 50 0 64 37 97 60 53z"/>
<path d="M1762 230 c0 -19 2 -27 5 -17 2 9 2 25 0 35 -3 9 -5 1 -5 -18z"/>
<path d="M1992 298 c-20 -20 -14 -35 23 -64 48 -36 47 -64 -2 -64 -25 0 -33
-3 -24 -9 11 -7 11 -10 0 -15 -8 -3 -3 -3 11 0 36 9 70 32 70 49 0 8 -16 26
-35 41 -42 32 -42 56 0 65 l30 7 -30 1 c-17 0 -36 -4 -43 -11z"/>
<path d="M2142 295 c-11 -12 -10 -15 3 -15 8 0 15 7 15 15 0 18 -2 18 -18 0z"/>
<path d="M2050 293 c-40 -7 -42 -18 -4 -18 20 0 34 5 34 13 0 6 -1 11 -2 11
-2 -1 -14 -4 -28 -6z"/>
<path d="M2230 281 c0 -11 -6 -22 -12 -25 -10 -5 -10 -7 0 -12 6 -3 12 -16 12
-29 0 -41 11 -55 44 -56 l31 -1 -30 -8 -30 -8 34 1 c19 1 36 8 39 15 2 7 0 12
-5 11 -4 -1 -20 -1 -35 0 -25 1 -28 5 -28 36 0 28 4 35 19 35 11 0 23 5 27 11
5 8 -1 10 -20 7 -22 -4 -26 -2 -26 18 0 13 -4 24 -10 24 -5 0 -10 -9 -10 -19z"/>
<path d="M1660 271 c-5 -11 -9 -30 -9 -43 1 -19 3 -18 8 7 3 17 16 35 31 42
24 12 24 13 3 13 -12 0 -27 -9 -33 -19z"/>
<path d="M700 264 c0 -8 5 -12 10 -9 6 4 10 -15 10 -49 0 -53 1 -56 25 -56 14
0 25 5 25 10 0 6 -7 10 -15 10 -12 0 -15 13 -15 55 0 48 -2 55 -20 55 -11 0
-20 -7 -20 -16z"/>
<path d="M1421 264 c0 -11 3 -14 6 -6 3 7 2 16 -1 19 -3 4 -6 -2 -5 -13z"/>
<path d="M440 209 l0 -60 33 3 c17 2 31 8 29 13 -2 6 -12 9 -22 7 -15 -2 -20
3 -20 18 0 17 4 20 20 15 11 -4 20 -2 20 4 0 6 -9 11 -20 11 -11 0 -20 7 -20
15 0 9 9 15 25 15 14 0 25 5 25 10 0 6 -16 10 -35 10 l-35 0 0 -61z"/>
<path d="M2100 260 c0 -5 7 -10 15 -10 11 0 15 -12 15 -45 0 -40 2 -45 23 -44
16 1 18 2 5 6 -14 3 -18 15 -18 54 0 42 -3 49 -20 49 -11 0 -20 -4 -20 -10z"/>
<path d="M2344 244 c-27 -41 -9 -78 39 -82 20 -2 37 0 37 5 0 5 -15 8 -32 8
-23 0 -34 5 -36 18 -3 14 4 17 32 17 28 0 36 4 36 18 0 45 -50 56 -76 16z m54
4 c19 -19 14 -28 -18 -28 -32 0 -37 9 -18 28 15 15 21 15 36 0z"/>
<path d="M2459 254 c-11 -14 -10 -19 10 -35 13 -11 29 -19 37 -19 8 0 14 -7
14 -16 0 -13 -8 -15 -35 -12 -19 2 -35 0 -35 -4 0 -4 18 -8 39 -8 60 0 64 38
7 59 -34 14 -29 37 8 33 14 -1 26 2 26 8 0 16 -56 12 -71 -6z"/>
<path d="M2153 220 c0 -25 2 -35 4 -22 2 12 2 32 0 45 -2 12 -4 2 -4 -23z"/>
<path d="M2532 245 c-11 -12 -10 -15 3 -15 8 0 15 7 15 15 0 18 -2 18 -18 0z"/>
<path d="M2296 235 c-16 -12 -17 -15 -4 -15 9 0 18 7 22 15 7 18 6 18 -18 0z"/>
<path d="M533 216 c14 -21 14 -25 -1 -39 -9 -9 -12 -20 -8 -24 4 -4 14 1 22
11 14 20 14 20 28 0 8 -10 18 -16 22 -12 4 5 -1 17 -11 28 -17 19 -17 21 0 40
16 17 16 20 2 20 -8 0 -18 -6 -21 -12 -5 -10 -7 -10 -12 0 -3 6 -13 12 -21 12
-14 0 -14 -2 0 -24z"/>
<path d="M610 178 c0 -32 4 -58 10 -58 6 0 10 7 10 15 0 8 6 15 13 15 25 0 50
37 43 64 -5 21 -12 25 -41 24 l-35 -1 0 -59z m55 32 c7 -12 -12 -40 -26 -40
-10 0 -12 34 -2 43 9 10 21 9 28 -3z"/>
<path d="M788 215 c-10 -22 -9 -29 9 -46 38 -38 89 3 63 51 -16 29 -58 26 -72
-5z m56 -4 c9 -14 -4 -41 -20 -41 -8 0 -14 10 -14 25 0 25 23 35 34 16z"/>
<path d="M883 195 c-1 -35 2 -45 14 -45 11 0 14 7 11 24 -6 28 10 60 19 39 8
-20 23 -15 23 7 0 16 -7 20 -32 20 -32 0 -33 -1 -35 -45z"/>
<path d="M971 218 c-6 -15 -5 -30 4 -43 13 -21 56 -27 62 -9 2 7 -6 10 -22 7
-15 -3 -25 -1 -25 6 0 6 12 11 26 11 21 0 25 4 22 23 -5 33 -55 37 -67 5z m44
2 c3 -5 -1 -10 -10 -10 -9 0 -13 5 -10 10 3 6 8 10 10 10 2 0 7 -4 10 -10z"/>
<path d="M1470 231 c0 -6 -11 -11 -25 -11 -17 0 -25 -5 -24 -17 0 -11 3 -13 6
-5 2 6 15 12 28 12 26 0 41 15 25 25 -5 3 -10 1 -10 -4z"/>
<path d="M2430 221 c0 -14 -8 -21 -27 -24 -26 -4 -26 -4 5 -6 28 -1 32 2 32
24 0 14 -2 25 -5 25 -3 0 -5 -9 -5 -19z"/>
<path d="M1601 188 c0 -9 -11 -24 -23 -32 -17 -12 -18 -16 -6 -16 22 0 41 25
35 47 -4 16 -5 16 -6 1z"/>
<path d="M2080 185 c0 -8 -15 -25 -32 -36 -28 -17 -29 -20 -8 -14 14 4 31 14
38 23 12 16 17 42 7 42 -3 0 -5 -7 -5 -15z"/>
<path d="M2427 166 c-3 -8 -21 -16 -39 -19 -33 -4 -33 -4 5 -5 26 -1 39 3 44
13 3 9 3 18 0 21 -2 3 -7 -2 -10 -10z"/>
<path d="M1282 155 c-11 -12 -10 -15 3 -15 8 0 15 7 15 15 0 18 -2 18 -18 0z"/>
<path d="M1362 155 c-11 -12 -10 -15 3 -15 8 0 15 7 15 15 0 18 -2 18 -18 0z"/>
<path d="M1480 161 c0 -6 -19 -12 -42 -14 l-43 -4 48 -1 c36 -2 47 2 47 13 0
8 -2 15 -5 15 -3 0 -5 -4 -5 -9z"/>
<path d="M2180 161 c0 -5 -12 -12 -27 -14 -26 -4 -26 -4 5 -6 22 -1 32 3 32
14 0 8 -2 15 -5 15 -3 0 -5 -4 -5 -9z"/>
<path d="M2520 153 c-24 -12 -24 -13 -3 -13 12 0 25 5 28 11 11 16 2 17 -25 2z"/>
<path d="M1220 145 c-14 -8 -20 -14 -14 -15 5 0 19 7 30 15 24 18 16 19 -16 0z"/>
<path d="M2468 143 c7 -3 16 -2 19 1 4 3 -2 6 -13 5 -11 0 -14 -3 -6 -6z"/>
</g>
</svg>
